<svg xmlns="http://www.w3.org/2000/svg"  viewBox="0 0 100 100" width="100px" height="100px" baseProfile="basic"><path fill="#f05b6c" d="M71.001,82h-42c-6.05,0-11-4.95-11-11V29c0-6.05,4.95-11,11-11h42c6.05,0,11,4.95,11,11v42 C82.001,77.05,77.051,82,71.001,82z"/><path fill="#fdfcee" d="M70.62,77H29.383c-3.51,0-6.382-2.872-6.382-6.382V29.382c0-3.51,2.872-6.382,6.382-6.382H70.62 c3.51,0,6.382,2.872,6.382,6.382v41.236C77.001,74.128,74.13,77,70.62,77z"/><path fill="#f16e7c" d="M37.96,36.5l-5.46,10l17.96,18l18-18l-5.5-10H37.96z"/><polyline fill="#f599a0" points="56.501,46.5 50.46,64.5 43.479,46.5"/><polygon fill="#f05b6c" points="50.501,36.5 56.478,46.559 62.961,36.5"/><polygon fill="#f05b6c" points="43.479,46.5 50.501,36.5 38.001,36.5"/><g><path fill="#1f212b" d="M71,78H29c-3.859,0-7-3.141-7-7V29c0-3.859,3.141-7,7-7h37.5c0.276,0,0.5,0.224,0.5,0.5 S66.776,23,66.5,23H29c-3.309,0-6,2.691-6,6v42c0,3.309,2.691,6,6,6h42c3.309,0,6-2.691,6-6V51c0-0.276,0.224-0.5,0.5-0.5 S78,50.724,78,51v20C78,74.859,74.859,78,71,78z"/><path fill="#1f212b" d="M77.5,48c-0.276,0-0.5-0.224-0.5-0.5v-4c0-0.276,0.224-0.5,0.5-0.5s0.5,0.224,0.5,0.5v4 C78,47.776,77.776,48,77.5,48z"/><path fill="#1f212b" d="M77.5,42c-0.276,0-0.5-0.224-0.5-0.5v-2c0-0.276,0.224-0.5,0.5-0.5s0.5,0.224,0.5,0.5v2 C78,41.776,77.776,42,77.5,42z"/><path fill="#1f212b" d="M71,83H29c-6.617,0-12-5.383-12-12V29c0-6.617,5.383-12,12-12h42c6.617,0,12,5.383,12,12v42 C83,77.617,77.617,83,71,83z M29,19c-5.514,0-10,4.486-10,10v42c0,5.514,4.486,10,10,10h42c5.514,0,10-4.486,10-10V29 c0-5.514-4.486-10-10-10H29z"/><path fill="#1f212b" d="M68,47H33c-0.276,0-0.5-0.224-0.5-0.5S32.724,46,33,46h35c0.276,0,0.5,0.224,0.5,0.5 S68.276,47,68,47z"/><path fill="#1f212b" d="M56.478,47.06c-0.003,0-0.006,0-0.009,0c-0.174-0.003-0.333-0.096-0.421-0.244l-5.583-9.396 l-6.577,9.367c-0.099,0.141-0.271,0.228-0.437,0.212c-0.173-0.01-0.328-0.107-0.411-0.259l-5.479-10 c-0.133-0.242-0.044-0.546,0.198-0.679c0.241-0.132,0.545-0.045,0.679,0.198l5.093,9.295l6.56-9.342 c0.097-0.139,0.26-0.216,0.428-0.213c0.17,0.007,0.324,0.099,0.411,0.244l5.565,9.365l6.045-9.38 c0.15-0.232,0.461-0.301,0.69-0.149c0.232,0.149,0.3,0.459,0.149,0.69l-6.482,10.06C56.806,46.974,56.647,47.06,56.478,47.06z"/><path fill="#1f212b" d="M50.46,65c-0.206,0-0.392-0.126-0.466-0.319l-6.981-18c-0.101-0.257,0.027-0.547,0.285-0.646 c0.257-0.101,0.548,0.027,0.646,0.285l6.481,16.71l5.601-16.688c0.087-0.262,0.372-0.404,0.633-0.314 c0.262,0.088,0.402,0.371,0.314,0.633l-6.04,18c-0.066,0.199-0.252,0.336-0.462,0.341C50.468,65,50.464,65,50.46,65z"/><path fill="#1f212b" d="M50.46,65L50.46,65c-0.133,0-0.26-0.053-0.354-0.146l-17.96-18 c-0.157-0.157-0.191-0.398-0.085-0.593l5.46-10C37.608,36.1,37.777,36,37.96,36h25c0.183,0,0.351,0.1,0.438,0.259l5.5,10 c0.106,0.195,0.072,0.438-0.085,0.595l-18,18C50.72,64.947,50.593,65,50.46,65z M33.118,46.411L50.46,63.793l17.381-17.381 L62.664,37H38.257L33.118,46.411z"/></g></svg>